# xmcd
#
# Track frame offsets: 
#        150
#        22145
#        42330
#        63740
#        87140
#        111572
#        137772
#        176339
#        197191
#        223639
#        243999
#
# Disc length: 4226 seconds
#
# Revision: 1
# Processed by: cddbd v1.5.2PL0 Copyright (c) Steve Scherf et al.
# Submitted via: ExactAudioCopy v0.99pb3
#
DISCID=a410800b
DTITLE=The Black Angels - Directions To See A Ghost
DYEAR=2008
DGENRE=Rock
TTITLE0=You On The Run
TTITLE1=Doves
TTITLE2=Science Killer
TTITLE3=Mission District
TTITLE4=18 Years
TTITLE5=Deer-Ree-Shee
TTITLE6=Never/Ever
TTITLE7=Vikings
TTITLE8=You In Color
TTITLE9=The Return
TTITLE10=Snake In The Grass
EXTD=
EXTT0=
EXTT1=
EXTT2=
EXTT3=
EXTT4=
EXTT5=
EXTT6=
EXTT7=
EXTT8=
EXTT9=
EXTT10=
PLAYORDER=
